<svg width="64" height="64" viewBox="0 0 64 64" fill="none" xmlns="http://www.w3.org/2000/svg">
<g clip-path="url(#clip0_3_128)">
<path d="M38.697 36.311H25.82C25.6041 36.311 25.429 36.4861 25.429 36.702V45.944C25.429 46.1599 25.6041 46.335 25.82 46.335H38.697C38.9129 46.335 39.088 46.1599 39.088 45.944V36.702C39.088 36.4861 38.9129 36.311 38.697 36.311Z" fill="#0033FF"/>
<path d="M21.505 30.73C21.505 30.73 26.807 24.59 32.482 25.428C38.157 26.266 40.947 28.312 42.808 30.637C43.924 27.846 43.459 24.032 43.459 24.032C43.459 24.032 41.412 20.683 38.715 20.497C36.018 20.311 25.971 20.962 25.971 20.962C25.971 20.962 20.576 21.148 20.762 25.985C20.948 30.822 21.506 30.729 21.506 30.729L21.505 30.73Z" fill="#C0F2F2"/>
<path d="M26.017 49.567V58.172C26.017 58.172 26.389 61.102 28.808 61.195C31.227 61.288 35.645 61.148 35.645 61.148C35.645 61.148 38.157 60.218 38.25 57.892C38.343 55.566 38.39 49.473 38.39 49.473C38.39 49.473 35.041 51.426 32.344 51.333C29.647 51.24 26.018 49.566 26.018 49.566L26.017 49.567Z" fill="#C0F2F2"/>
<path d="M37.494 11.338C37.494 8.44458 35.1486 6.099 32.2555 6.099C29.3624 6.099 27.017 8.44458 27.017 11.338V12.768C27.017 15.6614 29.3624 18.007 32.2555 18.007C35.1486 18.007 37.494 15.6614 37.494 12.768V11.338Z" fill="#C0F2F2"/>
<path d="M53.68 8.07399C53.68 5.18057 51.3346 2.83499 48.4415 2.83499C45.5484 2.83499 43.203 5.18057 43.203 8.07399V10.551C43.203 13.4444 45.5484 15.79 48.4415 15.79C51.3346 15.79 53.68 13.4444 53.68 10.551V8.07399Z" fill="#0033FF"/>
<path d="M41.97 46.637V58.172C41.97 58.172 42.435 60.777 44.854 60.963C47.273 61.149 52.389 61.056 52.389 61.056C52.389 61.056 54.622 60.963 55.18 57.335C55.738 53.707 54.994 40.126 54.994 40.126C54.994 40.126 56.668 39.847 57.599 37.893C58.53 35.939 60.948 24.312 60.948 24.312C60.948 24.312 60.39 19.01 56.111 18.266C51.832 17.522 41.134 18.173 41.134 18.173L37.878 20.126C37.878 20.126 42.808 21.8 43.459 24.033C44.11 26.266 42.808 30.638 42.808 30.638C42.808 30.638 45.134 34.266 45.134 37.429C45.134 40.592 43.925 44.964 41.971 46.638L41.97 46.637Z" fill="#0033FF"/>
<path d="M32.224 18.946C35.568 18.946 38.293 16.227 38.293 12.877V11.25C38.293 7.906 35.574 5.181 32.224 5.181C28.874 5.181 26.155 7.906 26.155 11.256V12.883C26.155 16.227 28.88 18.946 32.224 18.946ZM27.704 11.256C27.704 8.765 29.733 6.736 32.224 6.736C34.715 6.736 36.744 8.765 36.744 11.256V12.883C36.744 15.374 34.715 17.403 32.224 17.403C29.733 17.403 27.704 15.374 27.704 12.883V11.256Z" fill="#000066"/>
<path d="M15.98 16.467C19.492 16.467 22.355 13.61 22.355 10.092V8.375C22.355 4.863 19.498 2 15.98 2C12.462 2 9.605 4.864 9.605 8.376V10.093C9.605 13.611 12.468 16.468 15.98 16.468V16.467ZM11.16 8.374C11.16 5.715 13.321 3.554 15.98 3.554C18.639 3.554 20.8 5.715 20.8 8.374V10.091C20.8 12.75 18.639 14.911 15.98 14.911C13.321 14.911 11.16 12.75 11.16 10.091V8.374Z" fill="#000066"/>
<path d="M48.468 16.467C51.98 16.467 54.843 13.61 54.843 10.092V8.375C54.843 4.863 51.986 2 48.468 2C44.95 2 42.093 4.857 42.093 8.375V10.092C42.093 13.61 44.957 16.467 48.468 16.467ZM43.642 8.375C43.642 5.716 45.803 3.555 48.462 3.555C51.121 3.555 53.282 5.716 53.282 8.375V10.092C53.282 12.751 51.121 14.912 48.462 14.912C45.803 14.912 43.642 12.751 43.642 10.092V8.375Z" fill="#000066"/>
<path d="M59.748 19.907C58.331 18.334 56.212 17.398 54.075 17.398H42.861C40.796 17.398 38.761 18.268 37.35 19.745H27.103C25.686 18.268 23.657 17.398 21.586 17.398H10.367C8.236 17.398 6.123 18.335 4.706 19.901C3.446 21.294 2.852 23.041 3.032 24.817C3.302 27.446 4.299 31.498 5.175 35.07C5.379 35.886 5.571 36.679 5.745 37.411C6.213 39.344 7.312 40.617 8.758 40.947V57.869C8.758 60.144 10.607 61.999 12.888 61.999H15.914C15.938 61.999 15.956 61.993 15.98 61.993C16.004 61.993 16.028 61.999 16.052 61.999H19.078C21.353 61.999 23.208 60.15 23.208 57.869V48.528C23.869 49.116 24.589 49.639 25.358 50.095V58.049C25.358 60.222 27.129 61.993 29.302 61.993H32.165C32.189 61.993 32.207 61.987 32.231 61.987C32.255 61.987 32.273 61.993 32.297 61.993H35.16C37.333 61.993 39.104 60.222 39.104 58.049V50.167C39.872 49.729 40.593 49.213 41.259 48.636V57.863C41.259 60.138 43.108 61.993 45.383 61.993H48.415C48.439 61.993 48.463 61.987 48.481 61.987C48.505 61.987 48.523 61.993 48.547 61.993H51.573C53.848 61.993 55.703 60.144 55.703 57.863V40.947C56.387 40.791 57 40.431 57.504 39.872C58.062 39.26 58.477 38.407 58.717 37.405C58.885 36.697 59.083 35.874 59.299 34.992C60.127 31.6 61.166 27.38 61.43 24.817C61.598 23.04 61.01 21.299 59.749 19.906L59.748 19.907ZM42.964 26.643C42.898 27.309 42.76 28.156 42.562 29.194C40.047 26.349 36.373 24.554 32.291 24.554C28.149 24.554 24.427 26.403 21.912 29.32C21.702 28.239 21.558 27.351 21.486 26.649C21.36 25.418 21.774 24.2 22.645 23.215C23.672 22.05 25.22 21.336 26.799 21.3H37.664C39.237 21.336 40.785 22.056 41.812 23.221C42.682 24.2 43.091 25.418 42.965 26.643H42.964ZM19.072 60.446H16.821V39.502C16.821 39.076 16.473 38.728 16.047 38.728C15.621 38.728 15.273 39.076 15.273 39.502V60.446H12.884C11.461 60.446 10.309 59.287 10.309 57.871V25.875C10.309 25.449 9.961 25.101 9.535 25.101C9.211 25.101 8.941 25.299 8.821 25.575C8.779 25.665 8.761 25.767 8.761 25.875V39.322C7.843 38.902 7.435 37.779 7.261 37.047C7.087 36.315 6.889 35.522 6.691 34.7C5.827 31.176 4.842 27.178 4.584 24.657C4.446 23.324 4.902 22.004 5.863 20.941C6.992 19.692 8.678 18.948 10.377 18.948H21.597C22.822 18.948 24.028 19.332 25.031 20.005C23.668 20.377 22.414 21.14 21.489 22.184C20.33 23.499 19.784 25.137 19.952 26.8C20.06 27.833 20.294 29.213 20.678 30.99C19.351 33.103 18.583 35.594 18.583 38.266C18.583 41.544 19.742 44.551 21.662 46.916V57.865C21.656 59.288 20.497 60.446 19.075 60.446H19.072ZM26.906 58.045V50.883C28.335 51.495 29.89 51.874 31.516 51.964V60.446H29.301C27.98 60.446 26.906 59.365 26.906 58.045ZM37.543 58.045C37.543 59.366 36.468 60.44 35.148 60.44H33.065V51.964C34.644 51.874 36.151 51.52 37.549 50.937V58.045H37.543ZM32.29 50.433C25.585 50.433 20.122 44.976 20.122 38.265C20.122 31.554 25.579 26.097 32.29 26.097C39.001 26.097 44.458 31.554 44.458 38.265C44.458 44.976 38.995 50.433 32.29 50.433ZM59.874 24.656C59.622 27.111 58.601 31.277 57.779 34.621C57.563 35.51 57.359 36.338 57.191 37.046C57.017 37.79 56.717 38.409 56.339 38.829C56.141 39.045 55.925 39.207 55.691 39.315V25.868C55.691 25.442 55.343 25.094 54.917 25.094C54.809 25.094 54.707 25.118 54.617 25.154C54.341 25.274 54.143 25.544 54.143 25.868V57.864C54.143 59.287 52.984 60.439 51.568 60.439H49.317V39.495C49.317 39.069 48.969 38.721 48.543 38.721C48.117 38.721 47.769 39.069 47.769 39.495V60.439H45.374C43.951 60.439 42.799 59.28 42.799 57.864V47.071C44.798 44.688 46.005 41.62 46.005 38.271C46.005 35.534 45.195 32.982 43.808 30.839C44.174 29.116 44.408 27.789 44.51 26.805C44.678 25.142 44.138 23.509 42.979 22.189C42.055 21.138 40.794 20.376 39.437 20.004C40.439 19.332 41.646 18.947 42.865 18.947H54.079C55.784 18.947 57.471 19.692 58.599 20.946C59.559 22.008 60.016 23.323 59.878 24.656H59.874Z" fill="#000066"/>
<path d="M38.485 35.485H37.02V32.424C37.02 31.163 36.528 29.975 35.633 29.08C34.739 28.186 33.55 27.693 32.289 27.693C29.684 27.693 27.559 29.812 27.559 32.423V35.484H26.094C25.26 35.484 24.581 36.162 24.581 36.997V45.503C24.581 46.337 25.259 47.016 26.093 47.016H38.483C39.317 47.016 39.996 46.338 39.996 45.503V36.997C39.996 36.163 39.318 35.484 38.484 35.484L38.485 35.485ZM29.108 32.424C29.108 30.671 30.537 29.242 32.29 29.242C33.137 29.242 33.935 29.572 34.535 30.173C35.135 30.774 35.466 31.572 35.466 32.418V35.479H29.109V32.424H29.108ZM38.443 45.469H26.131V37.035H38.443V45.469Z" fill="#000066"/>
</g>
<defs>
<clipPath id="clip0_3_128">
<rect width="58.457" height="60" fill="white" transform="translate(3 2)"/>
</clipPath>
</defs>
</svg>
