<svg width="64" height="64" viewBox="0 0 64 64" fill="none" xmlns="http://www.w3.org/2000/svg">
<g clip-path="url(#clip0_2_102)">
<path d="M1.325 42.931V10.001C1.325 10.001 1.697 8.327 3.185 8.327H18.441L25.325 14.839L51.371 14.467C51.371 14.467 53.79 15.955 53.604 17.816C53.418 19.677 53.604 24.142 53.604 24.142H48.953L49.139 20.421C49.139 20.421 47.279 18.933 44.86 18.933C42.441 18.933 6.534 19.305 6.534 19.305C6.534 19.305 4.86 20.049 4.86 21.538C4.86 23.027 5.604 28.05 5.604 28.05L1.325 42.934V42.931Z" fill="#C0F2F2"/>
<path d="M46.535 18.792L6.535 19.304L4.861 21.537L5.605 28.049L7.326 23.677L48.954 24.142L49.14 20.421C49.14 20.421 47.791 18.933 46.535 18.793V18.792Z" fill="#0033FF"/>
<path d="M61.311 39.024H45.711C44.782 39.024 44.022 39.784 44.022 40.713V53.382C44.022 54.311 44.782 55.071 45.711 55.071H61.311C62.24 55.071 63 54.311 63 53.382V40.713C63 39.784 62.24 39.024 61.311 39.024V39.024ZM53.232 47.396C52.076 47.396 51.139 46.459 51.139 45.303C51.139 44.147 52.076 43.21 53.232 43.21C54.388 43.21 55.325 44.147 55.325 45.303C55.325 46.459 54.388 47.396 53.232 47.396Z" fill="#C0F2F2"/>
<path d="M49.861 38.989L45.711 39.024L46.227 32.391C46.227 32.391 50.141 27.806 54.055 28.309C57.969 28.812 60.485 32.446 60.653 33.732C60.821 35.018 60.765 38.876 60.765 38.876L56.124 38.988L56.292 35.018C56.292 35.018 55.341 32.334 53.217 32.446C51.093 32.558 50.31 34.794 50.31 34.794L49.863 38.987L49.861 38.989Z" fill="#0033FF"/>
<path d="M61.867 38.13V35.8C61.867 33.186 60.665 30.717 58.608 29.102L59.1 26.896C59.304 25.949 59.07 24.961 58.464 24.205C57.858 23.449 56.944 23.007 55.976 22.999H54.4V16.599C54.401 15.75 54.064 14.935 53.464 14.335C52.864 13.735 52.049 13.398 51.2 13.399H26.059C25.797 13.399 25.543 13.304 25.344 13.132L19.36 7.81102C18.778 7.28602 18.021 6.99702 17.237 7.00002H3.2C2.351 6.99902 1.536 7.33602 0.936002 7.93602C0.336002 8.53602 -0.000997781 9.35102 2.21918e-06 10.2V45.4C-0.000997781 46.249 0.336002 47.064 0.936002 47.664C1.536 48.264 2.351 48.601 3.2 48.6H42.667V52.867C42.667 53.715 43.005 54.529 43.605 55.129C44.205 55.729 45.018 56.066 45.867 56.067H60.8C61.648 56.067 62.462 55.729 63.062 55.129C63.662 54.529 63.999 53.716 64 52.867V41.134C63.998 40.474 63.792 39.832 63.41 39.294C63.028 38.756 62.489 38.35 61.867 38.131V38.13ZM59.734 35.8V37.933H57.601V35.8C57.601 34.276 56.788 32.867 55.468 32.105C54.148 31.343 52.522 31.343 51.201 32.105C49.881 32.867 49.068 34.276 49.068 35.8V37.933H46.935V35.8C46.935 33.514 48.155 31.401 50.135 30.257C52.115 29.114 54.555 29.114 56.535 30.257C58.515 31.4 59.735 33.513 59.735 35.8H59.734ZM55.467 35.92V37.933H51.2V35.8C51.2 35.171 51.478 34.575 51.959 34.169C52.44 33.764 53.075 33.591 53.695 33.696C54.204 33.801 54.66 34.08 54.984 34.487C55.308 34.893 55.479 35.401 55.467 35.92V35.92ZM2.134 10.2C2.134 9.91702 2.248 9.64602 2.447 9.44702C2.647 9.24702 2.918 9.13502 3.2 9.13402H17.237C17.499 9.13402 17.753 9.22902 17.952 9.40102L23.936 14.724C24.518 15.248 25.275 15.537 26.059 15.535H51.2C51.483 15.535 51.754 15.649 51.953 15.848C52.153 16.048 52.265 16.319 52.266 16.601V23.001H50.133V20.868C50.134 20.019 49.797 19.204 49.197 18.604C48.597 18.004 47.782 17.667 46.933 17.668H7.467C6.618 17.667 5.803 18.004 5.203 18.604C4.603 19.204 4.266 20.019 4.267 20.868V28.288L2.134 37.853V10.2V10.2ZM48 20.867V23H8.011C7.445 23 6.889 23.149 6.4 23.434V20.867C6.4 20.584 6.514 20.313 6.713 20.114C6.913 19.914 7.184 19.802 7.466 19.801H46.933C47.216 19.801 47.487 19.915 47.686 20.114C47.886 20.314 47.998 20.585 47.999 20.867H48ZM42.667 41.134V46.467H3.2C2.927 46.465 2.664 46.362 2.463 46.177L6.969 25.968C7.021 25.731 7.153 25.518 7.343 25.367C7.533 25.215 7.769 25.133 8.011 25.134H55.976C56.299 25.137 56.603 25.284 56.805 25.536C57.007 25.788 57.085 26.117 57.017 26.433L56.676 27.962C55.439 27.429 54.092 27.198 52.748 27.287C50.556 27.485 48.52 28.503 47.047 30.137C45.573 31.771 44.771 33.901 44.8 36.102V38.131C44.178 38.35 43.639 38.756 43.257 39.294C42.875 39.832 42.669 40.475 42.667 41.134ZM61.867 52.867C61.867 53.15 61.754 53.421 61.554 53.621C61.354 53.821 61.083 53.933 60.8 53.934H45.867C45.584 53.934 45.313 53.821 45.113 53.621C44.913 53.421 44.801 53.15 44.8 52.867V41.134C44.8 40.851 44.913 40.58 45.113 40.38C45.313 40.18 45.584 40.068 45.867 40.067H60.8C61.083 40.067 61.354 40.18 61.554 40.38C61.754 40.58 61.866 40.851 61.867 41.134V52.867Z" fill="#000066"/>
<path d="M53.334 42.2C52.32 42.198 51.366 42.677 50.762 43.491C50.158 44.305 49.977 45.358 50.274 46.327C50.571 47.296 51.311 48.067 52.267 48.403V50.733C52.267 51.114 52.47 51.466 52.8 51.657C53.13 51.847 53.537 51.847 53.867 51.657C54.197 51.466 54.4 51.114 54.4 50.733V48.403C55.356 48.067 56.096 47.296 56.393 46.327C56.69 45.358 56.509 44.305 55.905 43.491C55.301 42.677 54.347 42.197 53.333 42.2H53.334ZM53.334 46.467C53.051 46.467 52.78 46.355 52.58 46.155C52.38 45.955 52.268 45.684 52.268 45.401C52.268 45.118 52.38 44.847 52.58 44.647C52.78 44.447 53.051 44.335 53.334 44.335C53.617 44.335 53.888 44.447 54.088 44.647C54.288 44.847 54.4 45.118 54.4 45.401C54.4 45.684 54.287 45.955 54.087 46.155C53.887 46.355 53.616 46.467 53.333 46.468L53.334 46.467Z" fill="#000066"/>
</g>
<defs>
<clipPath id="clip0_2_102">
<rect width="64" height="49.067" fill="white" transform="translate(0 7)"/>
</clipPath>
</defs>
</svg>
